Pedal_Stiffness1_states
version=1
nRows=45
nColumns=9
inDegrees=yes

# SIMM Motion File Header:
name Pedal_Stiffness1_states
datacolumns 9
datarows 45
otherdata 1
range 1.12831202 1.74860917
endheader
time	B_Pedal_tilt	G_Pedal_tilt	Tester_Sld-B_Pedal	Tester_Sld-G_Pedal	B_Pedal_tilt_u	G_Pedal_tilt_u	Tester_Sld-B_Pedal_u	Tester_Sld-G_Pedal_u
      1.12831202	     10.25005845	      0.56426628	      0.04008240	      0.01064625	     -0.56545952	      3.18938436	      0.00078745	      0.01183746
      1.14437795	     10.24246768	      0.61712253	      0.04009804	      0.01084205	     -0.37395723	      3.38975383	      0.00129581	      0.01274763
      1.16044387	     10.23817770	      0.67318971	      0.04012678	      0.01105989	     -0.15651777	      3.59128422	      0.00224989	      0.01437336
      1.17650980	     10.23751672	      0.73259562	      0.04016799	      0.01130061	      0.07504445	      3.80688847	      0.00284211	      0.01543893
      1.19798118	     10.24242951	      0.81764647	      0.04023815	      0.01163627	      0.38139322	      4.11837814	      0.00370469	      0.01574861
      1.21945256	     10.25381105	      0.90950453	      0.04032825	      0.01198071	      0.67667610	      4.43845832	      0.00467449	      0.01649425
      1.24092393	     10.27138549	      1.00828868	      0.04043770	      0.01234890	      0.95739080	      4.76502871	      0.00551134	      0.01779121
      1.25882836	     10.29051178	      1.09612516	      0.04054233	      0.01267515	      1.17664240	      5.04879910	      0.00617693	      0.01854772
      1.27673278	     10.31342912	      1.18913258	      0.04065886	      0.01301125	      1.38079536	      5.34099698	      0.00682943	      0.01903934
      1.29995104	     10.34834672	      1.31753289	      0.04082614	      0.01346876	      1.62248393	      5.71932692	      0.00756686	      0.02050825
      1.31855332	     10.38017916	      1.42676605	      0.04097139	      0.01386379	      1.79704667	      6.02601096	      0.00803785	      0.02191833
      1.34107999	     10.42281941	      1.56681480	      0.04115909	      0.01437061	      1.98460089	      6.40976614	      0.00861150	      0.02300625
      1.36130845	     10.46448790	      1.70000220	      0.04133841	      0.01484560	      2.13217225	      6.75833754	      0.00909357	      0.02403852
      1.38175599	     10.50946091	      1.84177989	      0.04152763	      0.01535222	      2.26368252	      7.10922983	      0.00940103	      0.02555235
      1.39656091	     10.54360426	      1.94892725	      0.04166865	      0.01573799	      2.34712518	      7.36650652	      0.00966196	      0.02644220
      1.41136583	     10.57891562	      2.05993547	      0.04181378	      0.01613141	      2.42179954	      7.62993775	      0.00993276	      0.02666061
      1.43041323	     10.62587552	      2.20845214	      0.04200534	      0.01664487	      2.50698187	      7.96232038	      0.01017065	      0.02742875
      1.44946062	     10.67434428	      2.36319034	      0.04220075	      0.01718057	      2.58043574	      8.28485479	      0.01033176	      0.02876972
      1.46850802	     10.72410107	      2.52405897	      0.04239945	      0.01773570	      2.64237229	      8.60557755	      0.01053070	      0.02944887
      1.49145861	     10.78549034	      2.72584356	      0.04264266	      0.01842307	      2.70535774	      8.97444366	      0.01063940	      0.03060209
      1.49860983	     10.80489957	      2.79041493	      0.04271875	      0.01864385	      2.72261359	      9.08403310	      0.01064549	      0.03115195
      1.50170001	     10.81332379	      2.81855855	      0.04275171	      0.01874053	      2.72961215	      9.13077601	      0.01077551	      0.03147627
      1.50562138	     10.82404670	      2.85447992	      0.04279604	      0.01886601	      2.73996575	      9.19019561	      0.01200806	      0.03267071
      1.51391483	     10.84693954	      2.93124368	      0.04291330	      0.01915511	      2.78955962	      9.32526447	      0.01635073	      0.03740301
      1.52220828	     10.87051246	      3.00925703	      0.04306176	      0.01948824	      2.90779307	      9.49650090	      0.01890337	      0.04279090
      1.53050174	     10.89536614	      3.08894014	      0.04321714	      0.01985876	      3.09505117	      9.73153954	      0.01812525	      0.04605741
      1.53879519	     10.92194705	      3.17087854	      0.04335946	      0.02024339	      3.31758925	     10.03995314	      0.01630925	      0.04622994
      1.54708864	     10.95039873	      3.25564485	      0.04349296	      0.02061985	      3.54322639	     10.41094281	      0.01625760	      0.04431525
      1.55538209	     10.98071877	      3.34369105	      0.04363434	      0.02097644	      3.76989440	     10.82754120	      0.01799661	      0.04172660
      1.56367554	     11.01297436	      3.43530483	      0.04379116	      0.02131575	      4.01212176	     11.26790903	      0.01967894	      0.04047372
      1.57558156	     11.06297351	      3.57331183	      0.04403145	      0.02180884	      4.39103809	     11.91884087	      0.02046325	      0.04320417
      1.58748759	     11.11756874	      3.71927483	      0.04427753	      0.02235824	      4.77969769	     12.61098921	      0.02095445	      0.04925057
      1.59939361	     11.17676140	      3.87394752	      0.04453309	      0.02297645	      5.16275044	     13.38796006	      0.02201545	      0.05414384
      1.61129963	     11.24048425	      4.03847930	      0.04480153	      0.02363523	      5.54066474	     14.26672608	      0.02302138	      0.05607986
      1.62111699	     11.29638043	      4.18237591	      0.04503115	      0.02418787	      5.84488632	     15.05595196	      0.02377969	      0.05648728
      1.62941037	     11.34588951	      4.31012714	      0.04523157	      0.02465793	      6.09326180	     15.75716404	      0.02456191	      0.05685886
      1.63770375	     11.39742961	      4.44380984	      0.04543825	      0.02513180	      6.33484817	     16.48470243	      0.02525367	      0.05756505
      1.65004192	     11.47773485	      4.65403642	      0.04575548	      0.02585925	      6.67909472	     17.59885922	      0.02617405	      0.06077643
      1.66238009	     11.56215336	      4.87825113	      0.04608472	      0.02663969	      7.00137584	     18.75418243	      0.02720310	      0.06589685
      1.67726922	     11.66913155	      5.16832597	      0.04649721	      0.02766732	      7.36368820	     20.22591627	      0.02813840	      0.07195238
      1.69215836	     11.78126491	      5.48104053	      0.04692248	      0.02877170	      7.69333590	     21.79543556	      0.02896430	      0.07610734
      1.70704750	     11.89805900	      5.81772645	      0.04735967	      0.02993407	      7.98997178	     23.43972745	      0.02972584	      0.08030261
      1.72193664	     12.01902777	      6.17929649	      0.04780785	      0.03116993	      8.25395835	     25.13740418	      0.03047692	      0.08582505
      1.73791417	     12.15294150	      6.59590473	      0.04830098	      0.03258632	      8.50347797	     27.02333928	      0.03119899	      0.09124213
      1.74860917	     12.24469613	      6.89183599	      0.04863667	      0.03357958	      8.65256259	     28.32078945	      0.03156567	      0.09452112
